<svg width="402" height="309" viewBox="0 0 402 309" fill="none" xmlns="http://www.w3.org/2000/svg">
<g clip-path="url(#clip0)">
<g clip-path="url(#clip1)">
<path d="M14.3571 -0.000418337C12.4717 -0.000418255 10.6048 0.37094 8.8629 1.09245C7.12101 1.81397 5.53829 2.87151 4.20511 4.20469C2.87192 5.53788 1.81439 7.1206 1.09287 8.86248C0.371358 10.6044 -7.92398e-07 12.4713 -6.27571e-07 14.3567C-4.62743e-07 16.2421 0.371358 18.1091 1.09287 19.851C1.81439 21.5929 2.87193 23.1756 4.20511 24.5088C5.53829 25.8419 7.12101 26.8995 8.8629 27.621C10.6048 28.3425 12.4717 28.7139 14.3571 28.7139L14.3571 14.3567L14.3571 -0.000418337Z" fill="white" fill-opacity="0.02"/>
<path d="M122.037 14.3571C122.037 11.5176 121.195 8.74176 119.617 6.38074C118.039 4.01972 115.797 2.17953 113.174 1.09287C110.55 0.00621425 107.663 -0.278105 104.878 0.275868C102.093 0.829842 99.5353 2.19723 97.5274 4.20511C95.5195 6.21299 94.1521 8.77119 93.5981 11.5562C93.0442 14.3412 93.3285 17.228 94.4151 19.8514C95.5018 22.4748 97.342 24.7171 99.703 26.2947C102.064 27.8723 104.84 28.7143 107.679 28.7143L107.679 14.3571H122.037Z" fill="white" fill-opacity="0.02"/>
<circle cx="201" cy="14.3571" r="14.3571" fill="white" fill-opacity="0.02"/>
<circle cx="294.322" cy="14.3571" r="14.3571" fill="white" fill-opacity="0.02"/>
<path d="M401.999 14.3571C401.999 12.4717 401.628 10.6048 400.907 8.8629C400.185 7.12101 399.128 5.53829 397.794 4.20511C396.461 2.87193 394.878 1.81439 393.137 1.09287C391.395 0.371358 389.528 -8.24137e-08 387.642 0C385.757 8.24138e-08 383.89 0.371359 382.148 1.09287C380.406 1.81439 378.823 2.87193 377.49 4.20511C376.157 5.53829 375.1 7.12101 374.378 8.8629C373.657 10.6048 373.285 12.4717 373.285 14.3571L387.642 14.3571H401.999Z" fill="white" fill-opacity="0.02"/>
</g>
<g clip-path="url(#clip2)">
<circle cx="14.3571" cy="107.678" r="14.3571" fill="white" fill-opacity="0.02"/>
<path d="M107.679 93.3209C103.872 93.3209 100.22 94.8335 97.5274 97.526C94.8349 100.218 93.3223 103.87 93.3223 107.678C93.3223 111.486 94.8349 115.138 97.5274 117.83C100.22 120.523 103.872 122.035 107.679 122.035L107.679 107.678L107.679 93.3209Z" fill="white" fill-opacity="0.02"/>
<path d="M215.357 107.678C215.357 110.518 214.515 113.294 212.937 115.655C211.36 118.016 209.117 119.856 206.494 120.943C203.871 122.029 200.984 122.314 198.199 121.76C195.414 121.206 192.856 119.838 190.848 117.83C188.84 115.823 187.472 113.264 186.918 110.479C186.364 107.694 186.649 104.808 187.735 102.184C188.822 99.5608 190.662 97.3185 193.023 95.7409C195.384 94.1633 198.16 93.3213 201 93.3213L201 107.678H215.357Z" fill="white" fill-opacity="0.02"/>
<path d="M308.679 107.678C308.679 103.871 307.167 100.219 304.474 97.5264C301.782 94.8339 298.13 93.3213 294.322 93.3213C290.514 93.3213 286.862 94.8339 284.17 97.5264C281.477 100.219 279.965 103.871 279.965 107.678L294.322 107.678H308.679Z" fill="white" fill-opacity="0.02"/>
<circle cx="387.642" cy="107.678" r="14.3571" fill="white" fill-opacity="0.02"/>
</g>
<g clip-path="url(#clip3)">
<circle cx="14.3571" cy="201" r="14.3571" fill="white" fill-opacity="0.02"/>
<path d="M122.037 201C122.037 197.192 120.524 193.54 117.831 190.848C115.139 188.155 111.487 186.643 107.679 186.643C103.872 186.643 100.22 188.155 97.5274 190.848C94.8349 193.54 93.3223 197.192 93.3223 201L107.679 201H122.037Z" fill="white" fill-opacity="0.02"/>
<path d="M186.643 200.999C186.643 203.839 187.485 206.615 189.063 208.976C190.64 211.337 192.883 213.177 195.506 214.264C198.129 215.35 201.016 215.635 203.801 215.081C206.586 214.527 209.144 213.159 211.152 211.151C213.16 209.143 214.528 206.585 215.082 203.8C215.636 201.015 215.351 198.128 214.265 195.505C213.178 192.882 211.338 190.639 208.977 189.062C206.616 187.484 203.84 186.642 201 186.642L201 200.999L186.643 200.999Z" fill="white" fill-opacity="0.02"/>
<circle cx="294.322" cy="201" r="14.3571" fill="white" fill-opacity="0.02"/>
<path d="M401.999 201C401.999 198.16 401.157 195.384 399.58 193.023C398.002 190.662 395.76 188.822 393.137 187.735C390.513 186.649 387.626 186.364 384.841 186.918C382.056 187.472 379.498 188.84 377.49 190.848C375.482 192.856 374.115 195.414 373.561 198.199C373.007 200.984 373.291 203.871 374.378 206.494C375.465 209.117 377.305 211.36 379.666 212.937C382.027 214.515 384.803 215.357 387.642 215.357L387.642 201H401.999Z" fill="white" fill-opacity="0.02"/>
</g>
<g clip-path="url(#clip4)">
<path d="M14.3571 279.963C11.5176 279.963 8.74176 280.805 6.38074 282.383C4.01972 283.961 2.17953 286.203 1.09287 288.826C0.0062135 291.45 -0.278106 294.337 0.275868 297.122C0.829842 299.907 2.19723 302.465 4.20511 304.473C6.21299 306.481 8.77119 307.848 11.5562 308.402C14.3412 308.956 17.228 308.672 19.8514 307.585C22.4748 306.498 24.7171 304.658 26.2947 302.297C27.8723 299.936 28.7143 297.16 28.7143 294.321L14.3571 294.321L14.3571 279.963Z" fill="white" fill-opacity="0.02"/>
<circle cx="107.679" cy="294.321" r="14.3571" fill="white" fill-opacity="0.02"/>
<circle cx="201" cy="294.321" r="14.3571" fill="white" fill-opacity="0.02"/>
<path d="M279.963 294.321C279.963 296.206 280.335 298.073 281.056 299.815C281.778 301.557 282.835 303.139 284.169 304.473C285.502 305.806 287.084 306.863 288.826 307.585C290.568 308.306 292.435 308.678 294.321 308.678C296.206 308.678 298.073 308.306 299.815 307.585C301.557 306.863 303.139 305.806 304.473 304.473C305.806 303.139 306.863 301.557 307.585 299.815C308.306 298.073 308.678 296.206 308.678 294.321L294.321 294.321L279.963 294.321Z" fill="white" fill-opacity="0.02"/>
<circle cx="387.642" cy="294.321" r="14.3571" fill="white" fill-opacity="0.02"/>
</g>
</g>
<defs>
<clipPath id="clip0">
<rect width="402" height="308.679" fill="white"/>
</clipPath>
<clipPath id="clip1">
<rect width="402" height="28.7143" fill="white"/>
</clipPath>
<clipPath id="clip2">
<rect width="402" height="28.7143" fill="white" transform="translate(0 93.3213)"/>
</clipPath>
<clipPath id="clip3">
<rect width="402" height="28.7143" fill="white" transform="translate(0 186.643)"/>
</clipPath>
<clipPath id="clip4">
<rect width="402" height="28.7143" fill="white" transform="translate(0 279.964)"/>
</clipPath>
</defs>
</svg>
