<svg width="48" height="42" viewBox="0 0 48 42" fill="none" xmlns="http://www.w3.org/2000/svg">
<path opacity="0.05" d="M48 0.387081C41.0347 -0.738974 35.8612 0.591822 32.4795 4.37947C29.0978 8.16711 27.4069 13.7462 27.4069 21.1168V42H48V21.1168H37.4006C36.8454 17.4315 37.3502 14.4372 38.9148 12.1339C40.53 9.83061 43.1546 8.83251 46.7886 9.13961L48 0.387081ZM20.5931 0.387081C13.6278 -0.738974 8.45426 0.591822 5.07256 4.37947C1.69085 8.16711 0 13.7462 0 21.1168V42H20.5931V21.1168H9.99369C9.43849 17.4315 9.94322 14.4372 11.5079 12.1339C13.123 9.83061 15.7476 8.83251 19.3817 9.13961L20.5931 0.387081Z" fill="white"/>
</svg>
