<svg width="73" height="35" viewBox="0 0 73 35" fill="none" xmlns="http://www.w3.org/2000/svg">
<path d="M42.8009 29H1.19915C1.14647 29 1.09594 29.0225 1.05861 29.0626C1.02129 29.1026 1.00021 29.157 1 29.2138V34.7854C1 34.8423 1.02098 34.8969 1.05833 34.9371C1.09567 34.9774 1.14633 35 1.19915 35H42.8009C42.8537 35 42.9043 34.9774 42.9417 34.9371C42.979 34.8969 43 34.8423 43 34.7854V29.212C42.9994 29.1555 42.9781 29.1016 42.9408 29.0619C42.9035 29.0223 42.8533 29 42.8009 29ZM7.14109 33.5657C7.06068 33.9024 6.87179 34.0708 6.57442 34.0708C6.44334 34.0784 6.31407 34.0351 6.21013 33.9487C6.10796 33.8447 6.03836 33.709 6.01099 33.5604L5.31965 30.8156C5.30589 30.7694 5.2816 30.7441 5.24841 30.7441V30.7537C5.21117 30.7537 5.18689 30.7798 5.17313 30.8252L4.47531 33.5744C4.3949 33.9112 4.20601 34.0795 3.90864 34.0795C3.60587 34.0795 3.41159 33.9112 3.33145 33.5744L2.39806 30.074H3.06106L3.8374 33.3249C3.83973 33.3406 3.84723 33.3549 3.85853 33.3651C3.86982 33.3754 3.88416 33.3809 3.89892 33.3807C3.92726 33.3807 3.94669 33.3597 3.95559 33.3249L4.59027 30.7729C4.62652 30.571 4.70794 30.3817 4.82746 30.2215C4.94249 30.1171 5.08783 30.0594 5.23822 30.0584C5.38862 30.0574 5.53457 30.1133 5.65075 30.2162C5.77027 30.3765 5.85169 30.5658 5.88794 30.7676L6.51613 33.3126C6.5183 33.3284 6.52576 33.3428 6.53709 33.3531C6.54842 33.3634 6.56285 33.3689 6.57766 33.3685C6.58481 33.3689 6.59197 33.3679 6.59873 33.3653C6.60548 33.3627 6.61168 33.3587 6.61697 33.3535C6.62226 33.3483 6.62652 33.342 6.6295 33.335C6.63248 33.3279 6.63412 33.3204 6.63433 33.3126L7.41066 30.0618H8.07367L7.14109 33.5657ZM13.3421 34.035H9.22158C9.14548 34.0422 9.06885 34.0314 8.99707 34.0032C8.92528 33.9751 8.86009 33.9303 8.80608 33.8721C8.75206 33.8139 8.71054 33.7436 8.68442 33.6663C8.6583 33.5889 8.64823 33.5063 8.65491 33.4243V30.6725C8.65062 30.5908 8.66231 30.5091 8.68922 30.4326C8.71614 30.3561 8.75768 30.2865 8.81115 30.2284C8.8672 30.1729 8.9329 30.1299 9.00446 30.1019C9.07602 30.0739 9.15201 30.0615 9.22806 30.0653H13.3251V30.6952H9.42882C9.39053 30.6947 9.3534 30.7093 9.32439 30.7362C9.31006 30.7493 9.29874 30.7659 9.2913 30.7845C9.28385 30.8031 9.2805 30.8233 9.28149 30.8435V31.6951H13.2409V32.3058H9.28149V33.2498C9.27848 33.2714 9.28021 33.2935 9.28655 33.3142C9.29289 33.335 9.30366 33.3538 9.31799 33.3693C9.33232 33.3847 9.34981 33.3963 9.36906 33.4032C9.38831 33.41 9.40878 33.4118 9.42882 33.4086H13.355L13.3421 34.035ZM18.8995 34.035H14.6171C14.541 34.0422 14.4644 34.0314 14.3926 34.0032C14.3208 33.9751 14.2556 33.9303 14.2016 33.8721C14.1476 33.8139 14.1061 33.7436 14.0799 33.6663C14.0538 33.5889 14.0437 33.5063 14.0504 33.4243V30.6725C14.0461 30.5908 14.0578 30.5091 14.0847 30.4326C14.1117 30.3561 14.1532 30.2865 14.2067 30.2284C14.2627 30.1729 14.3284 30.1299 14.4 30.1019C14.4715 30.0739 14.5475 30.0615 14.6236 30.0653H18.8857V30.6952H14.8203C14.7823 30.6948 14.7454 30.7094 14.7167 30.7362C14.7023 30.7493 14.691 30.7659 14.6836 30.7845C14.6761 30.8031 14.6728 30.8233 14.6738 30.8435V31.6951H18.8024V32.3058H14.6738V33.2498C14.6706 33.2714 14.6722 33.2934 14.6784 33.3142C14.6847 33.3349 14.6954 33.3538 14.7096 33.3693C14.7239 33.3848 14.7414 33.3964 14.7606 33.4032C14.7798 33.41 14.8003 33.4119 14.8203 33.4086H18.9125L18.8995 34.035ZM20.2239 34.0403H19.6078V30.0601H20.2239V34.0403ZM21.966 34.035L20.7007 32.448C20.5955 32.3348 20.5314 32.1847 20.5202 32.0249C20.5202 31.8975 20.5817 31.7547 20.7048 31.5965L21.9555 30.0601H22.7172L21.2447 31.8512C21.2094 31.8861 21.186 31.9329 21.1783 31.9839C21.1859 32.0322 21.2075 32.0768 21.2399 32.1112L22.765 34.0307L21.966 34.035ZM25.8963 34.035H23.8498C23.7737 34.0421 23.6971 34.0311 23.6254 34.0029C23.5537 33.9747 23.4886 33.93 23.4346 33.8718C23.3806 33.8136 23.3391 33.7434 23.3129 33.6661C23.2867 33.5888 23.2766 33.5063 23.2831 33.4243V30.6725C23.2789 30.5908 23.2907 30.509 23.3178 30.4325C23.3449 30.356 23.3865 30.2865 23.4402 30.2284C23.4961 30.1729 23.5616 30.13 23.633 30.102C23.7045 30.0739 23.7803 30.0615 23.8563 30.0653H25.8801V30.6952H24.053C24.0147 30.6947 23.9775 30.7093 23.9485 30.7362C23.9343 30.7494 23.9231 30.7659 23.9158 30.7845C23.9085 30.8032 23.9053 30.8234 23.9064 30.8435V31.6951H25.7959V32.3058H23.9064V33.2498C23.9033 33.2714 23.9049 33.2934 23.9111 33.3142C23.9173 33.3349 23.928 33.3538 23.9423 33.3693C23.9566 33.3848 23.974 33.3964 23.9933 33.4032C24.0125 33.41 24.033 33.4119 24.053 33.4086H25.9092L25.8963 34.035ZM30.0443 33.2751C30.0443 33.5246 29.9876 33.7192 29.8694 33.8571C29.8068 33.9266 29.7309 33.9808 29.6472 34.016C29.5634 34.0512 29.4735 34.0666 29.3837 34.0612C29.236 34.0655 29.0911 34.0171 28.9717 33.9234C28.8324 33.7915 28.7251 33.625 28.6592 33.4383L27.5526 30.861C27.5194 30.7798 27.4765 30.7388 27.4247 30.7388C27.3534 30.7388 27.3202 30.7798 27.3202 30.861L27.3154 34.0455H26.7187V30.8304C26.7065 30.6178 26.7729 30.4086 26.9033 30.2485C26.9683 30.1783 27.0461 30.1235 27.1318 30.0876C27.2176 30.0517 27.3093 30.0355 27.4012 30.04C27.5467 30.034 27.6897 30.0824 27.8059 30.177C27.9413 30.3124 28.0451 30.4804 28.1087 30.6673L29.217 33.2446C29.255 33.3214 29.2979 33.3615 29.3449 33.3615C29.4153 33.3615 29.4485 33.3214 29.4485 33.2393V30.0601H30.05L30.0443 33.2751ZM33.828 33.4941C33.4589 33.8571 32.995 34.035 32.4356 34.035H31.5824C31.5063 34.0422 31.4297 34.0314 31.3579 34.0032C31.2861 33.9751 31.2209 33.9303 31.1669 33.8721C31.1129 33.8139 31.0714 33.7436 31.0452 33.6663C31.0191 33.5889 31.0091 33.5063 31.0157 33.4243V30.6725H31.006C31.0017 30.5908 31.0134 30.5091 31.0403 30.4326C31.0672 30.3561 31.1088 30.2865 31.1623 30.2284C31.2183 30.1729 31.284 30.1299 31.3556 30.1019C31.4271 30.0739 31.5031 30.0615 31.5792 30.0653H32.4389C32.9983 30.0653 33.4621 30.2398 33.8313 30.6062C34.2004 30.9727 34.385 31.4482 34.385 32.0502C34.385 32.6522 34.2004 33.132 33.8313 33.4941H33.828ZM37.73 34.035H35.6851C35.609 34.0422 35.5324 34.0314 35.4606 34.0032C35.3888 33.9751 35.3236 33.9303 35.2696 33.8721C35.2156 33.8139 35.1741 33.7436 35.1479 33.6663C35.1218 33.5889 35.1117 33.5063 35.1184 33.4243V30.6725C35.1143 30.5909 35.126 30.5092 35.153 30.4327C35.1799 30.3562 35.2213 30.2866 35.2747 30.2284C35.3308 30.173 35.3965 30.13 35.468 30.1021C35.5396 30.0741 35.6155 30.0616 35.6916 30.0653H37.7154V30.6952H35.8867C35.8484 30.6947 35.8112 30.7093 35.7822 30.7362C35.7679 30.7493 35.7566 30.7659 35.7491 30.7845C35.7417 30.8031 35.7383 30.8233 35.7393 30.8435V31.6951H37.628V32.3058H35.7393V33.2498C35.7363 33.2714 35.7381 33.2935 35.7444 33.3142C35.7507 33.335 35.7615 33.3538 35.7758 33.3693C35.7902 33.3847 35.8077 33.3963 35.8269 33.4032C35.8462 33.41 35.8666 33.4118 35.8867 33.4086H37.7429L37.73 34.035ZM40.8693 34.0403L40.008 32.6443H39.1661V34.0481H38.55V30.6804C38.5476 30.5989 38.5602 30.5177 38.587 30.4415C38.6138 30.3653 38.6544 30.2956 38.7063 30.2363C38.7587 30.1784 38.8218 30.133 38.8915 30.1029C38.9612 30.0729 39.036 30.0589 39.111 30.0618H40.2662C40.5984 30.0479 40.9227 30.1729 41.1713 30.4108C41.2899 30.5314 41.383 30.6782 41.4442 30.8411C41.5054 31.004 41.5332 31.1792 41.5258 31.3548C41.5332 31.6241 41.4465 31.8866 41.283 32.0903C41.1115 32.2981 40.8906 32.4516 40.6443 32.5344L41.6052 34.0342L40.8693 34.0403ZM33.369 31.0739C33.1139 30.8204 32.7769 30.6845 32.43 30.6952H31.767C31.747 30.6918 31.7265 30.6935 31.7073 30.7003C31.688 30.707 31.6705 30.7185 31.6561 30.7339C31.6418 30.7493 31.631 30.7681 31.6246 30.7888C31.6183 30.8095 31.6166 30.8316 31.6196 30.8531V33.2568C31.6192 33.2777 31.6227 33.2986 31.6301 33.3179C31.6375 33.3373 31.6485 33.3548 31.6625 33.3693C31.677 33.3846 31.6941 33.3965 31.7128 33.4044C31.7316 33.4124 31.7517 33.4162 31.7718 33.4156H32.4348C32.7817 33.4285 33.1196 33.2948 33.3763 33.043C33.6281 32.7926 33.7511 32.4611 33.7511 32.0475L33.7463 32.0528C33.7531 31.8697 33.7232 31.6871 33.6587 31.5176C33.5942 31.3481 33.4965 31.1955 33.3723 31.0704L33.369 31.0739ZM40.9074 31.3749C40.9118 31.2845 40.8976 31.1941 40.8657 31.1104C40.8337 31.0266 40.7849 30.9516 40.7228 30.8906C40.5976 30.7712 40.435 30.7073 40.2678 30.7118H39.3102C39.2908 30.7111 39.2715 30.7148 39.2535 30.7226C39.2355 30.7304 39.2192 30.7422 39.2057 30.7572C39.1923 30.771 39.1816 30.7877 39.1744 30.8061C39.1671 30.8246 39.1635 30.8444 39.1636 30.8645L39.1685 32.0388H40.2759C40.4433 32.0449 40.6064 31.9807 40.7309 31.86C40.7916 31.7972 40.8391 31.7211 40.8701 31.6368C40.9011 31.5525 40.9149 31.462 40.9106 31.3714L40.9074 31.3749Z" fill="white"/>
<path d="M36.9526 20.4677H34.6212C34.5602 20.4677 34.5003 20.4836 34.4472 20.5139C34.3941 20.5443 34.3497 20.588 34.3183 20.6408C33.9712 21.2203 33.4457 21.6693 32.822 21.9189C32.1984 22.1686 31.511 22.2052 30.8648 22.0233C30.2186 21.8413 29.6491 21.4508 29.2434 20.9114C28.8378 20.3719 28.6181 19.7132 28.6181 19.0359C28.6181 18.3585 28.8378 17.6998 29.2434 17.1604C29.6491 16.6209 30.2186 16.2304 30.8648 16.0485C31.511 15.8665 32.1984 15.9032 32.822 16.1528C33.4457 16.4025 33.9712 16.8514 34.3183 17.431C34.3498 17.4838 34.3942 17.5275 34.4472 17.5579C34.5003 17.5884 34.5602 17.6046 34.6212 17.6049H36.9502C37.0065 17.6048 37.0619 17.5913 37.1119 17.5654C37.1619 17.5395 37.2052 17.502 37.2381 17.456C37.271 17.41 37.2926 17.3568 37.3012 17.3007C37.3098 17.2446 37.3051 17.1872 37.2875 17.1333C36.8409 15.7918 35.9364 14.6544 34.7357 13.9241C33.535 13.1938 32.1163 12.9183 30.7329 13.1468C29.3496 13.3753 28.0917 14.0928 27.1841 15.1713C26.2764 16.2498 25.7781 17.619 25.7781 19.0343C25.7781 20.4495 26.2764 21.8187 27.1841 22.8972C28.0917 23.9757 29.3496 24.6933 30.7329 24.9217C32.1163 25.1502 33.535 24.8747 34.7357 24.1444C35.9364 23.4142 36.8409 22.2767 37.2875 20.9352C37.3047 20.8817 37.3091 20.8249 37.3004 20.7694C37.2917 20.7139 37.2702 20.6612 37.2375 20.6157C37.2049 20.5701 37.1621 20.533 37.1126 20.5073C37.0631 20.4816 37.0083 20.468 36.9526 20.4677ZM15.505 0.244834H13.3194C13.2395 0.24489 13.1621 0.272164 13.0996 0.322232C13.037 0.3723 12.9931 0.442226 12.9748 0.520673L11.5279 6.70158L10.113 1.66852C9.98913 1.19057 9.71182 0.767554 9.32447 0.465656C8.93713 0.163757 8.4616 0 7.97227 0C7.48293 0 7.0074 0.163757 6.62006 0.465656C6.23271 0.767554 5.9554 1.19057 5.8315 1.66852L4.4062 6.7493L2.89197 0.520673C2.87298 0.442895 2.82873 0.373783 2.76629 0.32437C2.70384 0.274957 2.6268 0.248094 2.54746 0.24807H0.354622C0.300881 0.248116 0.247852 0.260482 0.199534 0.284238C0.151217 0.307993 0.108875 0.342517 0.0756994 0.385204C0.0425241 0.427891 0.0193826 0.477628 0.00802136 0.530661C-0.00333985 0.583695 -0.00262349 0.638639 0.0101143 0.691353L2.27666 10.0157C2.35748 10.3598 2.51924 10.6791 2.74824 10.9466C2.97724 11.2142 3.26674 11.422 3.5922 11.5526H3.60021C3.87172 11.6583 4.16205 11.7057 4.4527 11.6917C4.74334 11.6778 5.02793 11.6029 5.2883 11.4717C5.55954 11.3336 5.79934 11.1401 5.99245 10.9033C6.18556 10.6666 6.32774 10.3918 6.40996 10.0966L7.97227 4.54097L9.53377 10.1031C9.61585 10.3984 9.75799 10.6732 9.95111 10.9099C10.1442 11.1467 10.3841 11.3402 10.6554 11.4782C10.9159 11.6095 11.2006 11.6845 11.4914 11.6984C11.7822 11.7123 12.0727 11.6649 12.3443 11.5591C12.6734 11.4281 12.9659 11.2182 13.1965 10.9474C13.4271 10.6767 13.5889 10.3533 13.6679 10.0052L15.8495 0.687309C15.8619 0.634663 15.8624 0.57986 15.8509 0.526995C15.8394 0.474131 15.8163 0.424573 15.7831 0.382024C15.75 0.339475 15.7078 0.305034 15.6596 0.281278C15.6114 0.257521 15.5586 0.245064 15.505 0.244834ZM15.3864 21.9035H13.5012C13.328 21.9035 13.162 21.834 13.0395 21.7104C12.9171 21.5867 12.8483 21.4191 12.8483 21.2442V13.6728C12.8483 13.5777 12.8109 13.4866 12.7443 13.4194C12.6777 13.3522 12.5875 13.3144 12.4933 13.3144H10.3662C10.2726 13.3151 10.183 13.3531 10.1171 13.4203C10.0512 13.4875 10.0143 13.5782 10.0145 13.6728V21.245C10.0145 22.1793 10.3821 23.0754 11.0364 23.736C11.6908 24.3967 12.5782 24.7678 13.5036 24.7678H15.3888C15.4354 24.7678 15.4815 24.7586 15.5245 24.7405C15.5675 24.7225 15.6066 24.6961 15.6395 24.6628C15.6724 24.6295 15.6985 24.59 15.7162 24.5466C15.734 24.5031 15.743 24.4565 15.7429 24.4095V22.2634C15.743 22.2162 15.7339 22.1694 15.716 22.1258C15.6981 22.0822 15.6718 22.0425 15.6386 22.0092C15.6055 21.9759 15.5661 21.9496 15.5228 21.9317C15.4796 21.9138 15.4332 21.9048 15.3864 21.9051V21.9035ZM49.4415 4.15269C49.4246 1.97914 47.6252 0.24726 45.4724 0.24726H41.9079C41.5319 0.247475 41.1713 0.398391 40.9054 0.666854C40.6395 0.935318 40.4901 1.29937 40.4899 1.67904V11.3439C40.4899 11.439 40.5272 11.5301 40.5938 11.5973C40.6604 11.6645 40.7507 11.7023 40.8448 11.7023H42.9711C43.0652 11.7023 43.1555 11.6645 43.2221 11.5973C43.2887 11.5301 43.326 11.439 43.326 11.3439V8.17218H43.3316L45.3538 11.53C45.3854 11.5825 45.4299 11.6259 45.4829 11.6561C45.536 11.6863 45.5958 11.7022 45.6567 11.7023H48.146C48.2089 11.7022 48.2707 11.6852 48.325 11.6531C48.3792 11.6209 48.4241 11.5748 48.4549 11.5194C48.4857 11.464 48.5014 11.4013 48.5003 11.3378C48.4993 11.2743 48.4815 11.2122 48.4488 11.1579L46.5484 7.99422V7.99017C47.383 7.76398 48.1197 7.26475 48.6432 6.57064C49.1667 5.87653 49.4474 5.02673 49.4415 4.15431V4.15269ZM43.326 8.14548V8.12122H43.3661L43.326 8.14548ZM45.5069 5.26009H43.3268V3.11566H45.5405C45.6843 3.11595 45.8266 3.14563 45.9587 3.2029C46.0909 3.26017 46.2101 3.34385 46.3094 3.44891C46.4087 3.55396 46.4858 3.67821 46.5363 3.81418C46.5867 3.95014 46.6094 4.09501 46.6029 4.24005C46.5835 4.51913 46.4592 4.78018 46.2555 4.96979C46.0517 5.15941 45.7839 5.26325 45.5069 5.26009ZM60.0203 13.3161H57.8939C57.7998 13.3161 57.7095 13.3538 57.643 13.421C57.5764 13.4882 57.539 13.5794 57.539 13.6744V24.4103C57.539 24.5053 57.5764 24.5965 57.643 24.6637C57.7095 24.7309 57.7998 24.7686 57.8939 24.7686H60.0203C60.1144 24.7686 60.2047 24.7309 60.2712 24.6637C60.3378 24.5965 60.3752 24.5053 60.3752 24.4103V13.6728C60.375 13.5783 60.3378 13.4877 60.2718 13.4208C60.2058 13.3538 60.1163 13.3159 60.0227 13.3152L60.0203 13.3161ZM36.1218 1.50593C35.9621 1.0677 35.6731 0.689484 35.2938 0.422322C34.9145 0.155159 34.4632 0.011911 34.0007 0.011911C33.5382 0.011911 33.0868 0.155159 32.7075 0.422322C32.3282 0.689484 32.0392 1.0677 31.8795 1.50593L28.3439 11.2177C28.3236 11.272 28.3165 11.3305 28.3235 11.3881C28.3305 11.4458 28.3512 11.5008 28.3839 11.5486C28.4166 11.5963 28.4603 11.6353 28.5113 11.6623C28.5623 11.6892 28.6189 11.7032 28.6764 11.7031H30.943C31.0155 11.703 31.0862 11.6804 31.1457 11.6385C31.2051 11.5965 31.2504 11.5372 31.2755 11.4685L31.793 10.0472H36.1771L36.6874 11.4669C36.712 11.536 36.7572 11.5958 36.8167 11.6381C36.8762 11.6804 36.9472 11.7031 37.0199 11.7031H39.2825C39.3395 11.703 39.3956 11.6891 39.4461 11.6625C39.4967 11.6359 39.5401 11.5974 39.5728 11.5503C39.6055 11.5032 39.6265 11.4488 39.634 11.3917C39.6414 11.3347 39.6352 11.2767 39.6158 11.2226L36.1218 1.50593ZM32.7568 7.39562L33.9979 3.98686L35.2229 7.39562H32.7568ZM46.1278 13.3169H38.136C38.0297 13.3169 37.9278 13.3595 37.8527 13.4353C37.7776 13.5112 37.7354 13.6141 37.7354 13.7213V15.8245C37.7353 15.8715 37.7444 15.9181 37.7621 15.9616C37.7799 16.005 37.8059 16.0445 37.8388 16.0778C37.8717 16.1111 37.9108 16.1375 37.9538 16.1555C37.9968 16.1736 38.0429 16.1828 38.0895 16.1828H40.691V24.4103C40.6909 24.4573 40.6999 24.5039 40.7177 24.5474C40.7354 24.5908 40.7615 24.6303 40.7944 24.6636C40.8273 24.6969 40.8664 24.7233 40.9094 24.7413C40.9524 24.7594 40.9985 24.7686 41.0451 24.7686H43.1722C43.2188 24.7686 43.2649 24.7594 43.3079 24.7413C43.3509 24.7233 43.39 24.6969 43.4229 24.6636C43.4558 24.6303 43.4819 24.5908 43.4996 24.5474C43.5174 24.5039 43.5264 24.4573 43.5263 24.4103V16.1804H46.1278C46.1743 16.1804 46.2205 16.1711 46.2635 16.1531C46.3065 16.1351 46.3456 16.1087 46.3785 16.0754C46.4114 16.0421 46.4374 16.0026 46.4552 15.9591C46.4729 15.9157 46.482 15.8691 46.4819 15.8221V13.6728C46.4819 13.5782 46.4448 13.4875 46.3787 13.4205C46.3127 13.3535 46.223 13.3157 46.1294 13.3152L46.1278 13.3169ZM24.6689 8.8274H20.8593L22.3583 7.66984C22.6201 7.46935 22.832 7.20992 22.9771 6.91222C23.1221 6.61451 23.1964 6.28673 23.1939 5.95495C23.1885 5.619 23.107 5.28877 22.9556 4.98955C22.8043 4.69034 22.587 4.43008 22.3206 4.22873L20.8593 3.09625H24.6088C24.7027 3.09625 24.7928 3.05858 24.8592 2.99153C24.9256 2.92448 24.9629 2.83354 24.9629 2.73871V0.593475C24.9629 0.49865 24.9256 0.407709 24.8592 0.340658C24.7928 0.273606 24.7027 0.235937 24.6088 0.235937H18.8107C18.3572 0.231229 17.9138 0.370517 17.543 0.634118C17.1722 0.897719 16.8929 1.2723 16.7444 1.70492C16.6042 2.12921 16.5987 2.58714 16.7289 3.01469C16.859 3.44225 17.1182 3.81806 17.4703 4.0896L19.8971 5.96223L17.4703 7.83567C17.1182 8.10721 16.859 8.48302 16.7289 8.91057C16.5987 9.33813 16.6042 9.79606 16.7444 10.2203C16.8929 10.6524 17.1719 11.0265 17.5422 11.29C17.9125 11.5534 18.3553 11.6928 18.8083 11.6885H24.6681C24.7147 11.6886 24.7608 11.6795 24.8039 11.6615C24.8469 11.6436 24.8861 11.6173 24.919 11.5841C24.952 11.5509 24.9782 11.5114 24.996 11.468C25.0138 11.4246 25.023 11.378 25.023 11.331V9.18332C25.023 9.08877 24.9859 8.99808 24.9199 8.93107C24.8538 8.86407 24.7642 8.82621 24.6705 8.82578L24.6689 8.8274ZM58.0077 8.8274H54.1965L55.6963 7.66984C55.9579 7.46917 56.1695 7.2097 56.3145 6.91201C56.4594 6.61433 56.5336 6.28664 56.5311 5.95495C56.5259 5.61897 56.4445 5.28867 56.2931 4.98943C56.1417 4.69018 55.9244 4.42995 55.6578 4.22873L54.1965 3.09625H57.946C57.9926 3.09636 58.0387 3.08719 58.0818 3.06927C58.1248 3.05135 58.164 3.02503 58.1969 2.99182C58.2299 2.95861 58.2561 2.91915 58.2739 2.87572C58.2918 2.83229 58.3009 2.78573 58.3009 2.73871V0.593475C58.3009 0.546454 58.2918 0.499896 58.2739 0.456465C58.2561 0.413033 58.2299 0.373583 58.1969 0.340371C58.164 0.30716 58.1248 0.280839 58.0818 0.262919C58.0387 0.244998 57.9926 0.235831 57.946 0.235937H52.1479C51.6948 0.231739 51.2519 0.371264 50.8816 0.634829C50.5113 0.898394 50.2323 1.27269 50.084 1.70492C49.944 2.12923 49.9387 2.58708 50.0688 3.01458C50.199 3.44208 50.458 3.8179 50.8099 4.0896L53.2367 5.96223L50.8099 7.83567C50.4579 8.10729 50.1988 8.4831 50.0687 8.91063C49.9385 9.33816 49.9439 9.79605 50.084 10.2203C50.2325 10.6524 50.5115 11.0265 50.8818 11.29C51.2521 11.5534 51.6949 11.6928 52.1479 11.6885H58.0077C58.0543 11.6886 58.1004 11.6795 58.1435 11.6615C58.1865 11.6436 58.2257 11.6173 58.2586 11.5841C58.2916 11.5509 58.3178 11.5114 58.3356 11.468C58.3534 11.4246 58.3626 11.378 58.3626 11.331V9.18332C58.3626 9.08863 58.3254 8.99781 58.2592 8.93079C58.193 8.86376 58.1031 8.82599 58.0093 8.82578L58.0077 8.8274ZM8.56434 21.8921H4.75312L6.24892 20.7346C6.51074 20.5341 6.72257 20.2747 6.86751 19.977C7.01245 19.6792 7.0865 19.3514 7.08375 19.0197C7.07843 18.6838 6.99704 18.3536 6.84581 18.0544C6.69458 17.7552 6.47752 17.4949 6.21127 17.2935L4.74991 16.1659H8.49945C8.54602 16.1659 8.59213 16.1566 8.63514 16.1386C8.67816 16.1205 8.71723 16.0941 8.75013 16.0608C8.78302 16.0276 8.80909 15.988 8.82684 15.9446C8.84459 15.9011 8.85367 15.8545 8.85357 15.8075V13.6598C8.85357 13.565 8.81626 13.4741 8.74984 13.407C8.68343 13.34 8.59336 13.3023 8.49945 13.3023H2.70449C2.25145 13.2981 1.80854 13.4376 1.43824 13.7012C1.06795 13.9648 0.788961 14.3391 0.640644 14.7713C0.500494 15.1957 0.495191 15.6536 0.625481 16.0812C0.75577 16.5088 1.01514 16.8845 1.36732 17.156L3.7941 19.0286L1.36732 20.902C1.01514 21.1735 0.75577 21.5492 0.625481 21.9768C0.495191 22.4044 0.500494 22.8623 0.640644 23.2867C0.789096 23.7188 1.06814 24.0929 1.43842 24.3563C1.80871 24.6197 2.25155 24.7591 2.70449 24.7549H8.56434C8.65826 24.7549 8.74833 24.7172 8.81474 24.6502C8.88115 24.5831 8.91846 24.4922 8.91846 24.3974V22.2473C8.91783 22.1529 8.88024 22.0625 8.81389 21.996C8.74755 21.9295 8.65785 21.8921 8.56434 21.8921ZM24.8283 21.8921H21.0155L22.5129 20.7346C22.7748 20.5342 22.9868 20.2748 23.1319 19.977C23.2769 19.6793 23.3511 19.3515 23.3486 19.0197C23.3431 18.6838 23.2615 18.3535 23.1102 18.0543C22.9588 17.7551 22.7416 17.4949 22.4753 17.2935L21.0139 16.1659H24.7635C24.81 16.1659 24.8561 16.1566 24.8991 16.1386C24.9422 16.1205 24.9812 16.0941 25.0141 16.0608C25.047 16.0276 25.0731 15.988 25.0908 15.9446C25.1086 15.9011 25.1177 15.8545 25.1176 15.8075V13.6598C25.1176 13.565 25.0803 13.4741 25.0138 13.407C24.9474 13.34 24.8574 13.3023 24.7635 13.3023H18.9669C18.5141 13.2984 18.0716 13.4381 17.7016 13.7017C17.3316 13.9652 17.0529 14.3393 16.9046 14.7713C16.7639 15.1951 16.7577 15.6527 16.887 16.0802C17.0163 16.5077 17.2745 16.8838 17.6257 17.156L20.0525 19.0286L17.6257 20.902C17.2745 21.1742 17.0163 21.5503 16.887 21.9778C16.7577 22.4053 16.7639 22.8629 16.9046 23.2867C17.053 23.7185 17.3318 24.0925 17.7018 24.3558C18.0717 24.6192 18.5142 24.7588 18.9669 24.7549H24.8267C24.8733 24.755 24.9194 24.7458 24.9625 24.7279C25.0056 24.71 25.0447 24.6837 25.0777 24.6505C25.1106 24.6172 25.1368 24.5778 25.1546 24.5344C25.1725 24.4909 25.1817 24.4444 25.1817 24.3974V22.2473C25.181 22.1527 25.1433 22.0623 25.0768 21.9957C25.0103 21.9292 24.9204 21.8919 24.8267 21.8921H24.8283ZM56.6048 17.2207C56.5872 15.0471 54.7878 13.3152 52.635 13.3152H49.0705C48.6946 13.3155 48.3341 13.4664 48.0683 13.7349C47.8025 14.0034 47.6532 14.3674 47.6532 14.747V24.4103C47.6531 24.4573 47.6622 24.5039 47.68 24.5474C47.6977 24.5908 47.7238 24.6303 47.7567 24.6636C47.7896 24.6969 47.8286 24.7233 47.8717 24.7413C47.9147 24.7594 47.9608 24.7686 48.0073 24.7686H50.1345C50.1811 24.7686 50.2272 24.7594 50.2702 24.7413C50.3132 24.7233 50.3523 24.6969 50.3852 24.6636C50.4181 24.6303 50.4441 24.5908 50.4619 24.5474C50.4796 24.5039 50.4887 24.4573 50.4886 24.4103V21.2377H50.4942L52.5148 24.5931C52.5466 24.6456 52.5912 24.6891 52.6444 24.7192C52.6975 24.7494 52.7575 24.7653 52.8185 24.7654H55.3069C55.3699 24.7653 55.4316 24.7483 55.4859 24.7162C55.5402 24.6841 55.5851 24.6379 55.6159 24.5825C55.6467 24.5271 55.6624 24.4645 55.6613 24.4009C55.6602 24.3374 55.6424 24.2753 55.6098 24.221L53.7062 21.0598V21.0557C54.5413 20.8302 55.2787 20.3314 55.803 19.6374C56.3272 18.9434 56.6087 18.0935 56.6032 17.2207H56.6048ZM50.4886 21.2143V21.1892H50.5287L50.4886 21.2143ZM52.6718 18.3265H50.4902V16.1804H52.7039C52.8478 16.1806 52.9902 16.2102 53.1224 16.2675C53.2547 16.3248 53.374 16.4085 53.4733 16.5137C53.5726 16.6189 53.6498 16.7432 53.7001 16.8794C53.7505 17.0155 53.773 17.1605 53.7662 17.3056C53.747 17.5848 53.6229 17.8461 53.4191 18.0359C53.2153 18.2256 52.9474 18.3296 52.6702 18.3265H52.6718ZM72.6429 20.4677H70.3115C70.2506 20.4677 70.1908 20.4837 70.1379 20.514C70.0849 20.5444 70.0407 20.588 70.0094 20.6408C69.6622 21.2206 69.1366 21.6697 68.5128 21.9195C67.889 22.1693 67.2014 22.2061 66.5549 22.0241C65.9085 21.8422 65.3389 21.4515 64.933 20.9119C64.5272 20.3723 64.3075 19.7134 64.3075 19.0359C64.3075 18.3583 64.5272 17.6994 64.933 17.1598C65.3389 16.6202 65.9085 16.2296 66.5549 16.0476C67.2014 15.8657 67.889 15.9024 68.5128 16.1522C69.1366 16.402 69.6622 16.8512 70.0094 17.431C70.0411 17.4837 70.0857 17.5274 70.1388 17.5578C70.192 17.5883 70.252 17.6045 70.3131 17.6049H72.6453C72.7015 17.6049 72.7569 17.5914 72.8069 17.5655C72.857 17.5396 72.9002 17.5021 72.9331 17.456C72.9659 17.41 72.9875 17.3567 72.9959 17.3006C73.0044 17.2445 72.9996 17.1872 72.9818 17.1333C72.5352 15.7918 71.6307 14.6544 70.43 13.9241C69.2293 13.1938 67.8105 12.9183 66.4272 13.1468C65.0438 13.3753 63.786 14.0928 62.8783 15.1713C61.9707 16.2498 61.4724 17.619 61.4724 19.0343C61.4724 20.4495 61.9707 21.8187 62.8783 22.8972C63.786 23.9757 65.0438 24.6933 66.4272 24.9217C67.8105 25.1502 69.2293 24.8747 70.43 24.1444C71.6307 23.4142 72.5352 22.2767 72.9818 20.9352C72.9992 20.8814 73.0037 20.8242 72.9949 20.7683C72.9861 20.7124 72.9642 20.6594 72.9311 20.6137C72.898 20.568 72.8546 20.5309 72.8045 20.5055C72.7543 20.4802 72.699 20.4672 72.6429 20.4677Z" fill="white"/>
</svg>
