<svg width="94" height="31" viewBox="0 0 94 31" fill="none" xmlns="http://www.w3.org/2000/svg">
<path d="M93.7673 0L80.4774 30.1908H55.4359L68.7257 0.0619935H93.7673V0ZM40.977 0L27.6872 30.1908H52.7287L66.0186 0.0619935H40.977V0ZM13.3514 0L0 30.1908H25.0415L38.3314 0.0619935H13.3514V0Z" fill="white"/>
<path d="M46.8845 22.3175L50.2069 14.7543H55.0061L49.9608 26.3471C39.8704 24.3633 36.0557 19.7758 38.3322 14.5683C40.9164 8.67895 50.1454 4.71137 60.2359 2.85156L59.1284 5.3313C56.2366 6.01323 45.777 8.36898 43.1313 14.5063C41.6547 17.792 43.0083 20.2717 46.8845 22.3175Z" fill="#1D1A3B"/>
<path d="M61.7737 26.4716L62.8812 23.9919C65.773 23.3099 76.2326 20.9542 78.8783 14.8168C80.2934 11.5932 78.9398 9.11341 75.0636 7.06763L70.0183 18.5364H65.2192L71.9872 2.97606C82.0777 4.95985 85.8923 9.54737 83.6158 14.7548C81.0932 20.6442 71.8642 24.6118 61.7737 26.4716ZM19.2585 22.318C15.3823 20.2102 14.0287 17.7925 15.4438 14.5688C18.151 8.43148 28.5491 6.07573 31.4409 5.3938L32.5484 2.91406C22.4579 4.77387 13.2289 8.74145 10.6447 14.6308C8.36822 19.9003 12.1829 24.4258 22.2733 26.4096L27.3186 14.8168H22.5194L19.2585 22.318Z" fill="#1D1A3B"/>
</svg>
