<svg width="73" height="52" viewBox="0 0 73 52" fill="none" xmlns="http://www.w3.org/2000/svg">
<path d="M6.18945 46.6602V34.2639L8.57847 5.33887L10.9675 34.2639V46.6602H6.18945ZM10.9675 46.6602V34.2639L13.3565 5.33887L15.7455 34.2639V46.6602H10.9675ZM15.7455 46.6602V34.2639L18.1346 5.33887L20.5236 34.2639V46.6602H15.7455ZM20.5236 46.6602V43.3293L22.9126 35.5574L25.3016 43.3293V46.6602H20.5236ZM25.3016 46.6602V43.3293L27.6906 35.5574L30.0797 43.3293V46.6602H25.3016ZM30.0797 46.6602V43.3293L32.4687 35.5574L34.8577 43.3293V46.6602H30.0797ZM38.6801 5.33887V17.7351L41.0692 46.6602L43.4582 17.7351V5.33887H38.6801ZM43.4582 5.33887V17.7351L45.8472 46.6602L48.2362 17.7351V5.33887H43.4582ZM48.2362 5.33887V17.7351L50.6252 46.6602L53.0143 17.7351V5.33887H48.2362ZM53.0143 35.5574V38.8883L55.4033 46.6602L57.7923 38.8883V35.5574H53.0143ZM57.7923 35.5574V38.8883L60.1813 46.6602L62.5703 38.8883V35.5574H57.7923ZM62.5703 35.5574V38.8883L64.9594 46.6602L67.3484 38.8883V35.5574H62.5703Z" fill="white"/>
</svg>
