<svg width="97" height="42" viewBox="0 0 97 42" fill="none" xmlns="http://www.w3.org/2000/svg">
<path d="M39.4298 12.6851C38.2943 12.4284 37.1588 13.1413 36.9033 14.282L35.2285 21.7248L33.6956 15.936C33.4401 14.9949 32.6169 14.3675 31.6517 14.3675H31.6233C30.6581 14.3961 29.8349 15.0805 29.6078 16.0215L25.8323 32.7321H30.1472L31.822 25.4034V25.3749L33.6388 32.7321H37.1588L40.9911 15.2516C41.2749 14.0539 40.5653 12.9417 39.4298 12.6851V12.6851ZM26.3149 18.6165C26.5704 17.4758 25.8607 16.3352 24.7252 16.0785C23.5897 15.8219 22.4542 16.5348 22.1988 17.6755L18.8207 32.6751H23.1355L25.6336 21.6107C25.6336 21.5822 25.6336 21.5252 25.662 21.4967L26.3149 18.6165V18.6165ZM25.6904 10.4893C25.9175 10.5463 26.1162 10.6034 26.3433 10.6034C27.2233 10.6034 28.0465 10.033 28.3588 9.14904L28.4439 8.89239C28.813 7.78025 28.1885 6.58255 27.0814 6.24036C25.9743 5.86964 24.782 6.497 24.4413 7.60915L24.3562 7.86579C23.9588 8.9209 24.5833 10.1186 25.6904 10.4893V10.4893ZM82.6067 11.3163C81.4428 10.1471 79.9099 10.0901 78.8595 10.4038L73.8918 11.5159C73.0969 11.687 72.4724 12.3144 72.3021 13.1128L68.6118 29.8805C68.3563 31.1352 69.4634 32.6751 70.5989 32.6751H72.3021L76.1344 15.3371L79.2286 14.6527L76.2195 28.2836H74.5447L73.5228 32.6751H77.866C78.8595 32.6751 79.6828 31.9907 79.9099 31.0212L83.4299 15.0519C83.7421 13.9968 83.7137 12.4284 82.6067 11.3163V11.3163ZM69.0944 7.89431C67.9305 6.72514 66.3976 6.6681 65.3473 6.98178L60.3227 8.12244C59.4995 8.29354 58.9034 8.94942 58.733 9.74788L54.5601 28.4547H53.8221L50.1317 18.5595L56.093 11.4018C56.8311 10.5178 56.7176 9.17755 55.8376 8.43612C54.9576 7.6947 53.6234 7.80876 52.8853 8.69277L48.2582 14.282L50.8698 2.59025C51.1253 1.44959 50.4156 0.308932 49.2801 0.0522837C48.1446 -0.204364 47.0091 0.508547 46.7537 1.64921L39.7704 32.6751H44.0853L46.5549 21.6963C46.5833 21.6107 46.5833 21.4967 46.5833 21.4111L46.6117 21.297L50.3588 31.3348C50.6711 32.1903 51.4659 32.7036 52.3459 32.7036C52.6014 32.7036 57.995 32.7321 57.995 32.7321L62.5653 11.9436L65.7163 11.2307L63.1331 22.7799L61.4582 22.8084L60.4647 27.0003H64.8079C65.8014 27.0003 66.6531 26.3159 66.8518 25.3464L69.946 11.6015C70.2298 10.5749 70.2015 9.00645 69.0944 7.89431ZM96.0054 15.166C94.8415 13.9968 93.3086 13.9398 92.2583 14.2535L87.2338 15.3656C86.4389 15.5367 85.8144 16.1641 85.6441 16.9625L82.1525 32.6466H86.4673L89.448 19.2439L92.5989 18.5024L91.6338 22.8369H89.9305L88.9654 27.0574L93.337 27.0859C94.3305 27.0859 95.1822 26.4015 95.3809 25.4319L96.8286 18.9017C97.1409 17.8466 97.1125 16.2782 96.0054 15.166V15.166ZM18.3949 11.2022C17.0607 9.86195 15.2723 9.7764 14.0516 10.1471L8.23228 11.4589C7.2955 11.6585 6.58582 12.3999 6.38711 13.3124L0 42H5.02453L10.8155 15.9645L14.4775 15.109L11.582 27.9414H9.59486L8.45938 32.8177L13.5407 32.8462C14.6762 32.8462 15.6697 32.0478 15.9252 30.9356L19.3884 15.5652C19.7291 14.3105 19.6723 12.4855 18.3949 11.2022" fill="white"/>
</svg>
