<svg width="120" height="24" viewBox="0 0 120 24" fill="none" xmlns="http://www.w3.org/2000/svg">
<path d="M27.7104 0.000185409C22.7327 -0.0306048 18.8428 3.77712 18.7915 8.73433C18.7402 13.7737 22.5479 17.6122 27.6386 17.6532C32.7395 17.684 36.578 13.9276 36.6088 8.87802C36.6396 3.62316 33.0371 0.0207122 27.7104 0.000185409ZM27.7515 14.2252C25.0111 14.2971 22.5069 11.7107 22.5069 8.80618C22.5069 5.84006 24.7443 3.55132 27.6694 3.53079C30.656 3.51027 32.9858 5.799 33.0166 8.76513C33.0371 11.8544 30.8305 14.1431 27.7515 14.2252Z" fill="white"/>
<path d="M19.6035 22.7031C25.1047 22.7031 30.5443 22.7031 36.0249 22.7031C36.0249 21.5536 36.0249 20.2296 36.0249 19.0801C30.493 19.0801 25.0739 19.0801 19.6035 19.0801C19.6035 20.2398 19.6035 21.5946 19.6035 22.7031Z" fill="white"/>
<path d="M78.6179 21.4197V0.626014H74.4509V7.83092L67.051 0.595223L61.1496 0.584961L74.4509 13.8863V17.2527L57.8242 0.626014V22.8052H62.0014V10.9818L73.6504 22.7949H74.4509V22.8052H78.6179V22.7949L79.9931 22.8052L78.6179 21.4197Z" fill="white"/>
<path d="M66.6508 19.6543C65.84 19.6646 65.2242 20.2804 65.2345 21.0809C65.2448 21.8609 65.9221 22.5178 66.6919 22.4973C67.4719 22.487 68.1288 21.7993 68.1185 21.0399C68.1185 20.2701 67.4719 19.6543 66.6508 19.6543Z" fill="white"/>
<path d="M90.8716 10.3555C90.0607 10.3657 89.4449 10.9815 89.4552 11.7821C89.4655 12.5621 90.1428 13.219 90.9126 13.1984C91.6926 13.1882 92.3495 12.5005 92.3392 11.741C92.329 10.9815 91.6824 10.3555 90.8716 10.3555Z" fill="white"/>
<path d="M110.127 0.236328L100.264 22.8158H104.123L106.114 18.1357L110.127 22.4566L114.068 18.2075L116.059 22.8158H120L110.127 0.236328ZM110.127 17.448L107.571 14.6872L107.643 14.523C107.643 14.5024 107.643 14.5024 107.664 14.4717L110.075 8.796L112.631 14.7488L110.127 17.448Z" fill="white"/>
<path d="M16.7396 13.8562C16.4214 13.3533 16.0314 12.8915 15.5285 12.4296C14.6561 11.6496 13.2808 10.7567 11.1768 10.2743C9.65785 9.90481 8.71362 9.69954 8.17992 9.49427L7.45123 9.22742C4.98801 8.33451 4.88538 7.4108 4.83406 6.44604C4.76222 5.26575 5.82961 3.71598 8.50835 3.73651C9.16521 3.73651 9.8426 3.85967 10.5508 4.05467C11.7619 4.37284 13.2295 4.94759 14.6151 6.09709V1.71462C12.5419 0.534329 10.1608 0.26748 8.55967 0.26748C8.48783 0.26748 1.27266 -0.0198945 0.872389 6.55894C0.821072 7.60581 1.0366 8.55004 1.40609 9.39164C2.01163 10.8696 3.39718 12.4912 6.27093 12.9736L0 19.7474C1.78583 21.564 4.13615 22.4775 5.98356 22.8983C7.05095 23.1343 8.10808 23.3396 9.17547 23.3396C10.0479 23.3396 10.8484 23.237 11.6387 23.0727C12.9935 22.8059 14.574 22.2825 15.5388 21.2048C17.2322 19.6858 17.4991 17.8384 17.4067 16.381C17.3143 15.5291 17.0886 14.6875 16.7396 13.8562ZM9.45259 19.8398C8.99073 19.8398 8.52888 19.8192 8.06703 19.7371C7.27675 19.614 6.30172 19.419 5.44986 18.9879L10.0992 13.9486L10.2839 14.0204C10.3044 14.0204 10.3352 14.041 10.3352 14.041C12.2032 14.6978 13.404 15.2212 13.404 16.9968C13.4143 18.8237 11.7926 19.8398 9.45259 19.8398Z" fill="white"/>
<path d="M39.6367 22.7954H55.5655V19.0082H43.8447V16.74H52.2094V13.548H43.8447V10.7359H52.1375V7.6466H43.8447V4.38284H55.5655V0.657227H39.6367V22.7954Z" fill="white"/>
<path d="M89.8459 0.554688H86.0587H84.6527H81.666V22.816H84.6527H86.0587H89.8459C96.3632 22.816 101.659 17.828 101.659 11.6905C101.659 5.55296 96.3632 0.554688 89.8459 0.554688ZM89.8459 18.608H86.0587V4.74215H89.8459C93.9 4.74215 97.2048 7.85196 97.2048 11.6699C97.2048 15.4982 93.9 18.608 89.8459 18.608Z" fill="white"/>
</svg>
