<svg width="76" height="26" viewBox="0 0 76 26" fill="none" xmlns="http://www.w3.org/2000/svg">
<g clip-path="url(#clip0)">
<path d="M18.976 22.7627L15.7734 25.9998H28.5188L25.3163 22.7627H18.976Z" fill="white"/>
<path d="M25.5371 22.4009L28.7784 25.6832V3.31445L25.5371 6.49984V22.4009Z" fill="white"/>
<path d="M25.3228 6.13161L28.6223 2.89453H15.6699L18.9695 6.13161H25.3228Z" fill="white"/>
<path d="M18.7179 6.46078L15.4766 3.27539V25.7217L18.7179 22.4394V6.46078Z" fill="white"/>
<path d="M13.2888 26H0V20.2237H3.24134V22.7694H10.0475V15.8947H0V2.91406H13.2888V8.69686H10.0475V6.15114H3.24134V12.6641H13.2953V26H13.2888Z" fill="white"/>
<path d="M43.7677 26H30.9512V2.91406H34.1925V22.7694H40.5264V20.2237H43.7677V26Z" fill="white"/>
<path d="M76.0006 26H72.4488L67.9717 15.8882H64.7433V26H61.502V2.91406H74.8361V15.8947H71.4848L76.0006 26ZM71.5948 12.6576V6.15114H64.7433V12.6641H71.5948V12.6576Z" fill="white"/>
<path d="M45.9863 16.2051V26.0003H49.15V19.3582H56.1503V26.0003H59.3205V16.2051H45.9863Z" fill="white"/>
<path d="M53.3297 2.44881L54.2096 0H53.3427L52.6569 1.93191L51.9646 0H51.0977L51.9775 2.44881H53.3297Z" fill="white"/>
<path d="M52.8828 2.91406V14.8286H59.3202L55.0566 2.91406H53.1675H52.8828Z" fill="white"/>
<path d="M52.4237 2.91406H52.1455H50.2499L45.9863 14.8286H52.4237V2.91406Z" fill="white"/>
</g>
<defs>
<clipPath id="clip0">
<rect width="76" height="26" fill="white"/>
</clipPath>
</defs>
</svg>
