<svg width="89" height="28" viewBox="0 0 89 28" fill="none" xmlns="http://www.w3.org/2000/svg">
<g clip-path="url(#clip0)">
<path fill-rule="evenodd" clip-rule="evenodd" d="M88.9865 4.14001C89.0835 4.52101 88.6565 4.88701 88.4345 5.16701C86.5715 7.50001 84.5055 10.26 82.0235 12.032C82.2025 12.96 82.1075 14.192 81.7835 14.872C82.4335 15.7 83.1235 16.484 83.5255 17.556C82.9965 20.356 81.7685 22.528 79.8055 23.948C77.8895 25.332 75.3005 25.878 72.3635 26.552C66.6845 27.857 57.3405 29.144 53.1275 25.762C48.5655 28.43 39.3465 28.782 35.0795 25.604C32.0465 29.431 20.0815 29.095 21.8615 21.501C19.6425 23.176 16.3615 25.485 13.2315 26.789C9.60153 28.299 2.72753 28.129 3.41453 23.001C3.49753 22.39 3.75653 22.045 4.04853 21.501C2.98653 19.654 2.31553 18.372 1.67353 16.766C1.05853 15.226 0.120527 13.473 0.0105272 11.322C-0.219473 6.74601 3.35853 3.84501 6.90053 2.48201C8.70753 1.78701 10.1755 0.780008 11.9655 0.275008C14.6405 -0.484992 16.9335 0.982008 17.1105 3.43101C20.2205 2.51101 24.0075 1.49601 28.1145 2.09001C31.3845 -0.444993 37.7705 1.12101 41.9675 2.32501C42.9165 2.59801 44.1935 3.30301 44.8965 3.27301C45.4915 3.24901 46.5665 2.44401 47.1905 2.16801C50.1355 0.866008 53.9855 -0.519992 58.1945 0.195008C58.9915 0.329008 59.7205 0.750008 60.5685 0.825008C61.1445 0.878008 61.8485 0.698008 62.4685 0.669008C72.3055 0.190008 80.4955 2.82201 88.9875 4.14001H88.9865ZM61.4405 3.82601C60.4355 3.94601 59.7225 5.04201 59.0655 5.40401C59.1135 5.39901 59.1585 5.39101 59.1435 5.32401C59.2635 4.78601 59.4935 4.35701 59.5395 3.74701C54.2715 1.89701 49.1445 4.60101 45.3715 6.66601C42.3535 8.31601 39.6615 10.256 37.7715 12.189C38.4545 11.029 39.1795 9.88101 39.9885 8.79701C40.8085 7.69601 41.7215 6.70001 42.4435 5.72001C40.8655 5.30801 39.2835 4.87301 37.6915 4.53501C35.4295 4.05501 32.2835 3.26001 30.4095 4.29901C29.8675 4.59901 29.4235 5.33801 28.9055 5.40401C28.4765 5.45901 27.7705 5.14701 27.2425 5.08901C25.3085 4.87401 23.5285 5.05301 21.7805 5.40401C20.1435 5.73101 16.6825 6.31101 16.2385 7.84901C15.9545 8.83701 16.5885 9.79401 16.4765 10.771C16.3685 11.731 15.4425 13.003 14.9725 13.769C14.3975 14.709 13.8125 15.541 12.8345 15.978C12.2425 13.038 12.8865 10.423 13.3895 7.93001C13.6995 6.39301 14.3245 4.82001 13.7865 3.27301C12.2765 3.06401 11.0055 4.25501 9.51053 4.85001C6.70253 5.97001 3.57553 6.99101 3.17853 10.217C2.95453 12.034 3.63953 13.189 4.12853 14.479C5.09481 17.0601 6.39954 19.5014 8.00853 21.739C7.58853 22.507 6.60153 22.707 6.50253 23.789C6.94953 24.419 7.87953 24.503 8.79853 24.5C11.4545 24.494 13.6325 23.162 15.6055 22.054C19.9015 19.644 22.7875 15.935 25.8185 12.427C26.3505 11.81 26.7885 11.067 27.4815 10.691C28.1615 13.808 26.8385 15.475 25.8965 18.029C25.5335 19.013 24.3885 22.093 24.9465 23.552C25.5585 25.157 30.7695 25.227 32.1505 24.186C32.8465 23.661 33.1235 22.476 33.4975 21.739C33.9745 20.791 34.3875 19.973 34.7635 19.135C34.7845 22.592 37.3605 23.607 40.1455 24.343C46.0655 25.903 52.0355 23.116 55.2655 21.188C54.8615 23.749 55.8595 24.006 57.8785 24.423C63.0985 25.497 68.3555 24.258 72.6015 23.238C76.4945 22.304 79.6245 21.644 80.2015 17.792C79.5785 17.255 78.0215 17.322 76.9565 17.478C73.8165 17.936 70.7765 19.518 66.5865 19.213C65.8215 19.158 64.1705 18.892 64.0515 18.425C63.8675 17.697 65.1755 17.187 66.2715 17.005C69.4115 16.475 73.9515 17.01 76.4805 16.055C77.6945 15.599 79.1595 14.281 79.0125 12.821C78.9165 11.835 77.6255 11.319 76.4005 11.244C72.9365 11.028 70.4605 13.044 66.8255 12.348C67.2795 11.776 67.3615 10.833 67.9315 10.376C70.5905 10.32 73.1735 10.846 75.6895 10.691C79.1875 10.473 81.1595 9.00401 82.8145 7.06101C82.9915 6.85101 83.4355 6.62601 83.2895 6.27301C77.2135 5.35101 68.9305 2.91001 61.4395 3.82601H61.4405ZM49.4075 9.90001C49.0175 11.67 48.2025 13.696 47.7455 15.66C50.2615 15.696 52.9155 15.184 55.5025 15.029C55.8525 14.563 56.0245 13.919 56.2155 13.293C56.7345 14.025 57.0995 15.395 56.6115 16.449C52.6825 16.394 49.8585 19.602 46.0045 19.605C44.2785 19.607 42.8115 18.618 43.6285 16.685C44.7825 13.96 47.6445 12.056 49.4075 9.90001ZM58.5905 6.98001C59.3305 7.82101 60.9505 7.78501 61.9145 8.40201C60.6135 8.73501 58.9755 8.73301 57.7975 9.18901C58.0755 8.46501 58.3245 7.71501 58.5905 6.98101V6.98001Z" fill="white"/>
</g>
<defs>
<clipPath id="clip0">
<rect width="89" height="28" fill="white"/>
</clipPath>
</defs>
</svg>
